# xmcd
#
# Track frame offsets: 
#        150
#        18856
#        35620
#        52429
#        68887
#        88196
#        103108
#        119119
#        134386
#        158944
#        196401
#
# Disc length: 2680 seconds
#
# Revision: 2
# Processed by: cddbd v1.5.2PL0 Copyright (c) Steve Scherf et al.
# Submitted via: ExactAudioCopy v1.0b3
#
DISCID=a60a760b
DTITLE=장기하와 얼굴들 - 장기하와 얼굴들
DYEAR=2011
DGENRE=Rock
TTITLE0=뭘 그렇게 놀래
TTITLE1=그렇고 그런 사이
TTITLE2=모질게 말하지 말라며
TTITLE3=TV를 봤네
TTITLE4=보고 싶은 사람도 없는데
TTITLE5=깊은 밤 전화번호부
TTITLE6=우리 지금 만나
TTITLE7=그때 그 노래
TTITLE8=마냥 걷는다
TTITLE9=날 보고 뭐라 그런 것도 아닌데
TTITLE10=TV를 봤네 (다시)
EXTD=
EXTT0=
EXTT1=
EXTT2=
EXTT3=
EXTT4=
EXTT5=
EXTT6=
EXTT7=
EXTT8=
EXTT9=
EXTT10=
PLAYORDER=
